<svg width="140" height="28" viewBox="0 0 140 28" fill="none" xmlns="http://www.w3.org/2000/svg">
<path d="M14 1.16669C6.60567 1.16669 0 6.09702 0 12.8415C0 15.2332 0.862167 17.5817 2.38817 19.404C2.45233 21.539 1.19467 24.6027 0.063 26.8334C3.09867 26.285 7.41417 25.074 9.37067 23.8747C20.146 26.4962 28 19.9022 28 12.8415C28 6.06085 21.3488 1.16669 14 1.16669ZM8.16667 14.5834C7.1995 14.5834 6.41667 13.8005 6.41667 12.8334C6.41667 11.8662 7.1995 11.0834 8.16667 11.0834C9.13383 11.0834 9.91667 11.8662 9.91667 12.8334C9.91667 13.8005 9.13383 14.5834 8.16667 14.5834ZM14 14.5834C13.0328 14.5834 12.25 13.8005 12.25 12.8334C12.25 11.8662 13.0328 11.0834 14 11.0834C14.9672 11.0834 15.75 11.8662 15.75 12.8334C15.75 13.8005 14.9672 14.5834 14 14.5834ZM19.8333 14.5834C18.8673 14.5834 18.0833 13.8005 18.0833 12.8334C18.0833 11.8662 18.8673 11.0834 19.8333 11.0834C20.8005 11.0834 21.5833 11.8662 21.5833 12.8334C21.5833 13.8005 20.8005 14.5834 19.8333 14.5834Z" fill="#27AE80"/>
<path d="M35.36 21V6.8H38.64V12.92L43.84 6.8H47.52L42.2 13.14L47.88 21H44.12L40.12 15.3L38.64 16.82V21H35.36ZM53.7013 9.76H56.3613L57.6413 13.28L58.9213 9.76H61.5813L59.4613 15.06L60.6413 17.54L63.9613 9.74H67.1013L62.0613 21H59.6613L57.6413 16.8L55.6413 21H53.2213L48.2012 9.74H51.3213L54.6613 17.54L55.7813 15.06L53.7013 9.76ZM69.2517 21V9.74H72.1317V21H69.2517ZM75.6033 21V9.74H78.4833V14.56L83.3633 9.74H86.3633L81.6433 14.76L86.6633 21H83.6033L79.9033 16.42L78.4833 17.64V21H75.6033ZM87.6416 13.78C87.6416 12.9133 87.8016 12.0667 88.1216 11.24C88.4416 10.4 88.9082 9.64 89.5216 8.96C90.1349 8.28 90.8816 7.74 91.7616 7.34C92.6416 6.92667 93.6416 6.72 94.7616 6.72C96.0949 6.72 97.2482 7.00667 98.2216 7.58C99.2082 8.15333 99.9416 8.9 100.422 9.82L97.9016 11.58C97.6882 11.0733 97.4016 10.68 97.0416 10.4C96.6949 10.12 96.3082 9.92667 95.8816 9.82C95.4682 9.7 95.0682 9.64 94.6816 9.64C94.0549 9.64 93.5082 9.76667 93.0416 10.02C92.5749 10.26 92.1882 10.5867 91.8816 11C91.5749 11.4133 91.3482 11.8733 91.2016 12.38C91.0549 12.8867 90.9816 13.3933 90.9816 13.9C90.9816 14.46 91.0682 15 91.2416 15.52C91.4149 16.04 91.6616 16.5 91.9816 16.9C92.3149 17.3 92.7149 17.62 93.1816 17.86C93.6482 18.0867 94.1616 18.2 94.7216 18.2C95.1216 18.2 95.5282 18.1333 95.9416 18C96.3549 17.8667 96.7349 17.66 97.0816 17.38C97.4416 17.0867 97.7149 16.7067 97.9016 16.24L100.582 17.82C100.302 18.5133 99.8416 19.1067 99.2016 19.6C98.5616 20.0933 97.8349 20.4733 97.0216 20.74C96.2216 20.9933 95.4282 21.12 94.6416 21.12C93.6149 21.12 92.6682 20.9133 91.8016 20.5C90.9482 20.0733 90.2082 19.5133 89.5816 18.82C88.9682 18.1133 88.4882 17.3267 88.1416 16.46C87.8082 15.58 87.6416 14.6867 87.6416 13.78ZM113.911 9.74V21H111.051V16.5H105.991V21H103.111V9.74H105.991V13.98H111.051V9.74H113.911ZM116.092 21L120.952 9.74H123.292L128.112 21H125.072L124.072 18.64H120.132L119.172 21H116.092ZM122.112 13.22L120.752 16.14H123.432L122.112 13.22ZM138.735 12.24H134.895V21H132.015V12.24H128.175V9.74H138.735V12.24Z" fill="#27AE80"/>
</svg>
