<svg width="28" height="28" viewBox="0 0 28 28" fill="none" xmlns="http://www.w3.org/2000/svg">
<path d="M14 1.16669C6.60567 1.16669 0 6.09702 0 12.8415C0 15.2332 0.862167 17.5817 2.38817 19.404C2.45233 21.539 1.19467 24.6027 0.063 26.8334C3.09867 26.285 7.41417 25.074 9.37067 23.8747C20.146 26.4962 28 19.9022 28 12.8415C28 6.06085 21.3488 1.16669 14 1.16669ZM8.16667 14.5834C7.1995 14.5834 6.41667 13.8005 6.41667 12.8334C6.41667 11.8662 7.1995 11.0834 8.16667 11.0834C9.13383 11.0834 9.91667 11.8662 9.91667 12.8334C9.91667 13.8005 9.13383 14.5834 8.16667 14.5834ZM14 14.5834C13.0328 14.5834 12.25 13.8005 12.25 12.8334C12.25 11.8662 13.0328 11.0834 14 11.0834C14.9672 11.0834 15.75 11.8662 15.75 12.8334C15.75 13.8005 14.9672 14.5834 14 14.5834ZM19.8333 14.5834C18.8673 14.5834 18.0833 13.8005 18.0833 12.8334C18.0833 11.8662 18.8673 11.0834 19.8333 11.0834C20.8005 11.0834 21.5833 11.8662 21.5833 12.8334C21.5833 13.8005 20.8005 14.5834 19.8333 14.5834Z" fill="#27AE80"/>
</svg>
