<svg xmlns="http://www.w3.org/2000/svg" width="136" height="27" fill="none"><g fill="#fff" clip-path="url(#a)"><path fill-rule="evenodd" d="M16.1 0C22.672 0 28 5.328 28 11.9s-5.328 11.9-11.9 11.9h-.7v1.386c0 .78-.633 1.415-1.415 1.414-3.445-.003-6.933-1.152-9.58-3.506C1.733 20.718.003 17.184 0 12.612V11.9C0 5.328 5.328 0 11.9 0zm-7 9.8a2.1 2.1 0 1 0 0 4.2 2.1 2.1 0 0 0 0-4.2m9.8 0a2.1 2.1 0 1 0 0 4.2 2.1 2.1 0 0 0 0-4.2" clip-rule="evenodd"/><path d="M36.682 19.462q-.684 0-1.044-.378t-.36-1.062V7.87q0-.684.36-1.044.36-.378 1.044-.378.666 0 1.026.378.36.36.36 1.044v4.266h.036l4.788-5.004q.306-.324.63-.486.342-.18.774-.18.63 0 .9.324a.97.97 0 0 1 .252.756q-.036.432-.396.81l-4.806 4.914.018-1.206 5.04 5.382q.414.45.414.918.018.468-.306.792-.306.306-.918.306-.522 0-.846-.216a4.4 4.4 0 0 1-.684-.63l-4.86-5.112h-.036v4.518q0 .684-.36 1.062-.342.378-1.026.378M53.68 19.462q-.54 0-.918-.252-.378-.27-.612-.846l-2.538-6.282q-.198-.504-.126-.882a.99.99 0 0 1 .378-.63q.324-.252.882-.252.468 0 .774.234.306.216.522.846l1.98 5.274h-.414l2.052-5.508q.144-.432.414-.63.288-.216.738-.216t.72.216q.288.216.45.63l2.016 5.508h-.342l1.962-5.346q.216-.576.558-.792t.738-.216q.504 0 .774.252.288.252.324.648.054.396-.144.864l-2.52 6.282q-.216.558-.612.828-.378.27-.918.27a1.6 1.6 0 0 1-.918-.27q-.378-.27-.612-.828l-2.16-5.616h1.17l-2.106 5.598q-.216.558-.594.846-.378.27-.918.27M69.412 19.444q-.666 0-1.026-.378-.342-.396-.342-1.098v-6.156q0-.72.342-1.098.36-.396 1.026-.396.648 0 .99.396.36.378.36 1.098v6.156q0 .702-.342 1.098-.342.378-1.008.378m0-10.602q-.756 0-1.17-.342-.396-.36-.396-1.008 0-.666.396-1.008.414-.36 1.17-.36t1.152.36q.396.342.396 1.008 0 .648-.396 1.008-.396.342-1.152.342M76.412 19.462q-.666 0-1.026-.36-.342-.36-.342-1.026V7.834q0-.684.342-1.026.36-.36 1.026-.36.648 0 .99.36.36.342.36 1.026v6.282h.036l2.61-2.898q.396-.45.72-.666.342-.234.9-.234t.846.288a.93.93 0 0 1 .306.702q.018.396-.342.81l-2.754 3.078V14.17l3.06 3.528q.342.414.288.828a.97.97 0 0 1-.36.684q-.324.252-.828.252-.612 0-.99-.234-.36-.234-.738-.72l-2.718-3.024h-.036v2.592q0 1.386-1.35 1.386M94.434 19.498q-2.052 0-3.51-.81a5.6 5.6 0 0 1-2.25-2.268q-.774-1.476-.774-3.474 0-1.494.432-2.682.45-1.206 1.296-2.052A5.7 5.7 0 0 1 91.68 6.88q1.224-.468 2.754-.468.9 0 1.818.234.936.216 1.62.63.45.252.612.63t.09.756a1.17 1.17 0 0 1-.306.648q-.234.27-.594.342t-.81-.162a4 4 0 0 0-1.134-.468 5 5 0 0 0-1.206-.144q-1.206 0-2.034.486-.81.468-1.224 1.368t-.414 2.214q0 1.296.414 2.214t1.224 1.404q.828.468 2.034.468.576 0 1.17-.144a4.6 4.6 0 0 0 1.17-.45q.468-.234.828-.162a.96.96 0 0 1 .612.324q.252.252.306.612.072.36-.072.72t-.54.612q-.666.45-1.638.702a7.7 7.7 0 0 1-1.926.252M104.412 19.462q-.666 0-1.026-.36-.342-.36-.342-1.026V7.834q0-.684.342-1.026.36-.36 1.026-.36.648 0 .99.36.36.342.36 1.026v4.284h-.252a2.98 2.98 0 0 1 1.224-1.35q.828-.486 1.872-.486 1.062 0 1.746.414.684.396 1.026 1.224.342.81.342 2.07v4.086q0 .666-.36 1.026-.342.36-1.008.36-.648 0-1.008-.36-.342-.36-.342-1.026v-3.96q0-.918-.342-1.314-.324-.414-1.008-.414-.864 0-1.386.54-.504.54-.504 1.44v3.708q0 1.386-1.35 1.386M119.032 19.498q-.972 0-1.746-.378t-1.206-1.026a2.57 2.57 0 0 1-.432-1.458q0-.972.504-1.53.504-.576 1.638-.81 1.134-.252 3.006-.252h.954v1.404h-.936q-.918 0-1.494.108-.558.09-.81.324-.234.234-.234.648 0 .504.342.828.36.324 1.026.324.522 0 .918-.234.414-.252.648-.666.234-.432.234-.972v-2.07q0-.792-.36-1.116-.36-.342-1.224-.342-.486 0-1.062.126a7 7 0 0 0-1.242.378q-.396.18-.702.09a.9.9 0 0 1-.468-.36 1.1 1.1 0 0 1-.162-.576q0-.324.18-.612.18-.306.594-.45a7.7 7.7 0 0 1 1.584-.468 8.5 8.5 0 0 1 1.386-.126q1.386 0 2.268.414.9.396 1.35 1.242.45.828.45 2.142v3.996q0 .666-.324 1.026t-.936.36-.954-.36q-.324-.36-.324-1.026v-.666l.126.108a2.31 2.31 0 0 1-1.35 1.746q-.54.234-1.242.234M133.382 19.498q-1.242 0-2.088-.414a2.75 2.75 0 0 1-1.242-1.206q-.396-.792-.396-1.998v-3.384h-.756q-.504 0-.792-.27-.27-.27-.27-.738 0-.504.27-.756.288-.27.792-.27h.756V9.094q0-.684.36-1.026.36-.36 1.008-.36.666 0 1.008.36.342.342.342 1.026v1.368h1.71q.504 0 .774.27.27.252.27.756 0 .468-.27.738t-.774.27h-1.71v3.276q0 .756.342 1.134.36.378 1.134.378.27 0 .504-.054t.432-.072a.48.48 0 0 1 .414.162q.162.162.162.738 0 .432-.144.756a.88.88 0 0 1-.504.468q-.234.09-.648.144a4 4 0 0 1-.684.072"/></g><defs><clipPath id="a"><path fill="#fff" d="M0 0h136v26.6H0z"/></clipPath></defs></svg>