<svg xmlns="http://www.w3.org/2000/svg" width="40" height="40" fill="none"><g clip-path="url(#a)"><rect width="40" height="40" fill="#27AE80" rx="12"/><path fill="#fff" fill-rule="evenodd" d="M21.8 8.6c5.633 0 10.2 4.567 10.2 10.2S27.433 29 21.8 29h-.6v1.188c0 .67-.543 1.213-1.213 1.212-2.952-.003-5.943-.987-8.211-3.005C9.486 26.358 8.003 23.33 8 19.41v-.61c0-5.633 4.567-10.2 10.2-10.2zm-6 8.4a1.8 1.8 0 1 0 0 3.6 1.8 1.8 0 0 0 0-3.6m8.4 0a1.8 1.8 0 1 0 0 3.6 1.8 1.8 0 0 0 0-3.6" clip-rule="evenodd"/></g><defs><clipPath id="a"><path fill="#fff" d="M0 0h40v40H0z"/></clipPath></defs></svg>