<svg xmlns="http://www.w3.org/2000/svg" viewBox="0 0 400 400" fill="none" shape-rendering="auto"><metadata xmlns:rdf="http://www.w3.org/1999/02/22-rdf-syntax-ns#" xmlns:xsi="http://www.w3.org/2001/XMLSchema-instance" xmlns:dc="http://purl.org/dc/elements/1.1/" xmlns:dcterms="http://purl.org/dc/terms/"><rdf:RDF><rdf:Description><dc:title>Adventurer Neutral</dc:title><dc:creator>Lisa Wischofsky</dc:creator><dc:source xsi:type="dcterms:URI">https://www.figma.com/community/file/1184595184137881796</dc:source><dcterms:license xsi:type="dcterms:URI">https://creativecommons.org/licenses/by/4.0/</dcterms:license><dc:rights>Remix of „Adventurer Neutral” (https://www.figma.com/community/file/1184595184137881796) by „Lisa Wischofsky”, licensed under „CC BY 4.0” (https://creativecommons.org/licenses/by/4.0/)</dc:rights></rdf:Description></rdf:RDF></metadata><mask id="viewboxMask"><rect width="400" height="400" rx="0" ry="0" x="0" y="0" fill="#fff" /></mask><g mask="url(#viewboxMask)"><rect fill="#b6e3f4" width="400" height="400" x="0" y="0" /><g transform="translate(-279 -322)"><path d="M380.24 447.22a55.22 55.22 0 0 1 38.11 9.43 55.05 55.05 0 0 1 22.82 36.06c1.19 8.28.93 17.07-1.63 25.08a54.93 54.93 0 0 1-25.11 31.65 54.67 54.67 0 0 1-33.47 6.98c-16.14-1.57-31.14-10.83-39.98-24.4-5.54-8.33-8.46-18.04-9.11-27.98-.3-12.3 3.26-24.62 10.56-34.57a55.01 55.01 0 0 1 37.81-22.25Z" fill="#000"/><path d="M378.24 453.29c19.42-3.65 39.86 5.43 50.31 22.16 6.62 10.5 9.5 23.85 6.67 36.03a49.3 49.3 0 0 1-22.5 32.27 50.26 50.26 0 0 1-22.73 7.28c-19.82 1.35-39.3-10.22-47.62-28.26a49.26 49.26 0 0 1 35.87-69.48Z" fill="#fff"/><path d="M589.99 474.91c13.08-.6 26.98-1.27 39.85 1.48 2.15.57 2.9 1.32 2.29 3.67-2.1 1.76-6.1 3.3-6.83 6.12-.03 6 9.05 5.9 9.7 10.8-.3 2.95-2.43 3.33-4.98 3.14a384.71 384.71 0 0 0-23.02-1.4c-16.02-.1-32.02-.24-48 .87-7.57.7-15.22.63-22.78 1.17-11.11 1.03-22.13 1.31-33.14 3.36-2.67.5-5.5 1.11-8.23 1.06-2.01-1.24-3.05-5.54-.56-6.86 5.33-3.02 11.33-5.1 17.18-6.87 15.08-4.97 30.76-8.25 46.26-11.64 10.64-2.42 21.43-3.76 32.26-4.9ZM405.43 479.68c3.46-.9 6.9-1 10.4-.2 8.85 2.08 15.44 10.42 15.31 19.54.24 11.12-10.03 21.17-21.19 20.13-9.28-.52-17.48-7.87-18.76-17.12-1.7-9.8 4.73-19.67 14.24-22.35Z" fill="#000"/></g><g transform="translate(-279 -322)"><path d="M501.99 384.96c9.9.12 19.87 3.23 28.83 7.31 3.36 1.88 7.05 4 7.3 8.3-5.13-.87-10.13-2.07-15.37-2.3-11.6-.67-23.13 1.37-33.25 7.24-2.54 1.41-4.95 3.26-7.64 4.35-1.8.27-3.92-2-3.94-3.73-.18-5.81 1.95-11.92 6.53-15.7 5.03-4.23 11.15-5.3 17.54-5.47ZM414.03 402.61c5.81.15 10.93 5.3 12.51 10.64.8 2.63-.46 5.72-3.53 5.61-8.82.2-18.2.03-26.81 2.26-7.52 2-14.74 6.7-21.36 10.74-1.22.81-2.57.96-3.98 1.22.33-1.93.64-3.66 1.94-5.2a97.47 97.47 0 0 1 10.74-12.31c5.88-5.17 13-8.96 20.32-11.66a25.26 25.26 0 0 1 10.17-1.29Z" fill="#000"/></g><g transform="translate(-279 -322)"><path d="M473 557.77c14.54-.55 30.84 1.36 43.71 8.62-20.68 8.7-43.2 14.72-65.7 15.48-7.24 0-14.34.28-21.54-.61.7-5.83 3.1-9.58 7.73-13.05 9.92-7.31 23.76-9.76 35.8-10.44Z" fill="#D31E1E"/><path d="M525.03 563.67c.41.78.8 1.57 1.14 2.37.47 2.66-1.95 3.31-3.8 4.34-4 1.77-8.06 3.4-12.13 4.98-17.66 6.32-35.39 11.11-54.24 11.94-6.5.5-12.94.62-19.44.04-4.9-.57-10.15-.63-14.87-2.03-2.35-.88-2.73-3.93-.4-5.07 2.68-.12 5.48.83 8.18 1.02 7.2.89 14.3.61 21.54.61 22.5-.76 45.02-6.79 65.7-15.48 2.76-1.19 5.22-2.6 8.32-2.72Z" fill="#000"/><path d="M510.24 575.36c-1.96 10.16-10.37 17.27-19.22 21.68a56.41 56.41 0 0 1-34 4.71c-8.7-1.77-16.5-6.13-20.46-14.4 6.5.57 12.94.45 19.44-.05 18.85-.83 36.58-5.62 54.24-11.94Z" fill="#D31E1E"/></g><g transform="translate(-279 -322)"><path fill-rule="evenodd" clip-rule="evenodd" d="M608 415.8c6.19-.15 12.37-.17 18.55-.18 4.48-.01 8.97-.03 13.45-.1.56.02 1.13.02 1.7.02 3.1 0 6.25.02 9.3.5 2.58.53 5.61 1.94 6.1 4.83a38.9 38.9 0 0 1-1.15 17c-.46 1.76-1.74 2.09-3.35 2.33-3.46.36-6.95.57-10.42.78l-3.76.23c.12 4.28.38 8.64.64 13.02.7 11.72 1.4 23.63-.44 34.8a87.76 87.76 0 0 1-5.73 21.83c-3.11 8.55-9.1 16.19-15.42 22.62-9.83 10.36-22.25 18.39-36.2 21.8a115.5 115.5 0 0 1-33.23 2.17c-9.22-1.58-18.8-3.87-27.06-8.4-10.5-6.05-18.47-15.05-24.78-25.29-8.17-12.62-11.9-27.18-15.47-41.59-.52-2.19-.84-4.45-1.17-6.71-.42-2.83-.83-5.67-1.61-8.37-.48-1.78-2.64-3.07-4.17-3.9-6.7-3.36-16.4-.94-18.99 6.6-.5 2.84-.55 5.75-.6 8.66-.06 2.86-.11 5.73-.59 8.55-2 13.03-4.77 26.14-10.56 38.06-5.55 11.58-11.7 22.03-22.47 29.5-12.88 7.76-28.34 13.44-43.57 11.92-6.86-.15-14.05-1.4-20.36-4.13-6.87-3.71-13.8-8.11-18.84-14.16-10.32-12.28-16.95-27.7-20.8-43.17-1.86-6.83-3.03-13.81-2.96-20.9-1.64.23-3.27.55-4.9.87-2.4.46-4.79.93-7.2 1.16a5.27 5.27 0 0 1-5.36-2.69c-1.96-3.76-2.46-8.38-1.77-12.53l.12-.54c.23-1.1.47-2.3 1.61-2.79 27.43-12.56 55.94-20.6 85.48-26.45 11.24-2.31 22.47-3.81 33.98-3.07a61.95 61.95 0 0 1 28.86 7.05c10.79 4.81 24.5 5.41 35.15-.12 3.04-1.48 4.93-3.68 6.93-5.99a39.5 39.5 0 0 1 3.95-4.14c9.81-9.08 23.1-13.26 36.12-14.8 13.1-2.37 26.26-3 39.52-3.65l2.5-.12c5.54-.15 11.1-.15 16.65-.15 7.44 0 14.89 0 22.32-.36Zm-23 6.26c8.34-.34 16.32-.45 24.15 2.9.65.3 1.37.6 2.11.9 3.17 1.31 6.86 2.83 7.89 5.97 5.81 12.4 8.22 26.56 8.39 40.17.56 12.44-.87 25.5-5.2 37.22-3.72 9.79-10.5 17.11-18.26 23.88-5.21 4.32-11.62 7.5-17.78 10.22-9.15 3.83-19.3 6.8-29.3 6.15-5.8-.34-11.57-1.78-17.2-3.18l-.87-.23c-5.96-1.47-10.69-4.56-15.7-7.85l-.86-.56c-6.8-4.54-12.23-10.46-17.08-16.98-2.77-3.93-4.56-8.67-6.3-13.25l-1.22-3.16c-4.64-11.94-5.98-24.55-5.87-37.28.1-7.74 1.2-16.94 5.51-23.55 5.14-6.46 12.01-12.24 19.83-15.08 9.27-2.8 19.13-4.25 28.78-4.96 11.57-1.28 23.17-1.3 34.65-1.33H585Zm-172.35 22.06c-.9-.02-1.78-.04-2.66-.08-8.61-.87-17.85.94-26.5 2.63l-3.48.68c-2.29.52-4.57 1-6.84 1.5-9.4 2.01-18.63 4-27.68 7.65-.9.36-1.84.71-2.78 1.07-5.77 2.17-12.01 4.53-14.95 10.19-4.84 9.87-3.73 19.61-2.56 29.93l.37 3.3c1.93 11.76 6.83 23.24 13.14 33.32 5.06 8.01 10.9 15.08 19.42 19.57 12.78 7.1 27.95 6.15 41.4 1.57 11.36-4.43 21.76-9.82 28.56-20.38 8.84-14.04 13.92-30.65 15.47-47.12.91-9.38-.1-18.83-2.68-27.88-.46-1.39-.98-2.92-1.89-4.09-5.19-5.6-11.6-9.87-19.19-11.35-2.33-.4-4.76-.46-7.15-.51Z" fill="#000"/></g></g></svg>