<svg xmlns="http://www.w3.org/2000/svg" viewBox="0 0 400 400" fill="none" shape-rendering="auto"><metadata xmlns:rdf="http://www.w3.org/1999/02/22-rdf-syntax-ns#" xmlns:xsi="http://www.w3.org/2001/XMLSchema-instance" xmlns:dc="http://purl.org/dc/elements/1.1/" xmlns:dcterms="http://purl.org/dc/terms/"><rdf:RDF><rdf:Description><dc:title>Adventurer Neutral</dc:title><dc:creator>Lisa Wischofsky</dc:creator><dc:source xsi:type="dcterms:URI">https://www.figma.com/community/file/1184595184137881796</dc:source><dcterms:license xsi:type="dcterms:URI">https://creativecommons.org/licenses/by/4.0/</dcterms:license><dc:rights>Remix of „Adventurer Neutral” (https://www.figma.com/community/file/1184595184137881796) by „Lisa Wischofsky”, licensed under „CC BY 4.0” (https://creativecommons.org/licenses/by/4.0/)</dc:rights></rdf:Description></rdf:RDF></metadata><mask id="viewboxMask"><rect width="400" height="400" rx="0" ry="0" x="0" y="0" fill="#fff" /></mask><g mask="url(#viewboxMask)"><rect fill="#763900" width="400" height="400" x="0" y="0" /><g transform="translate(-279 -322)"><path d="m619.86 481.79 2.63 1.13c-.12 1-.28 2-.47 2.98-2.21 3.85-5.93 6.93-9 10.11a93.33 93.33 0 0 1-19.16 12.88 85.49 85.49 0 0 1-45.84 8.4c-19.45-1.64-38.43-9.82-54.2-21.1-1.4-1.13-2.88-1.98-2.47-4.04.53-2.48 3.96-3.31 6.1-2.45 21.22 6.28 42.64 6.72 64.56 5.45 16.26-1.55 32.06-4.27 47.52-9.68 3.54-1.21 6.78-2.8 10.33-3.68ZM440.55 492.43c2.8 1.36 2.2 4.42.14 6.19-10.83 9.97-25.3 16.29-39.72 18.8-7.78 1-15.1 2.3-22.95 1.12-13.82-1.06-27.27-5.1-39-12.53-2.16-1.4-4.68-2.9-6.2-5-.62-2.53.72-3.88 3.14-4.18 2.71.28 5.43 1.35 8.08 2.03 7.56 2.13 15.22 3.03 23 3.79 21.45 1.58 43.69-.86 64.16-7.53 2.94-.78 6.3-2.97 9.35-2.69Z" fill="#000"/></g><g transform="translate(-279 -322)"><path d="M568.44 405.96c-.6-2.92-2.48-4.87-4.6-6.82-11.98-10.95-29.88-15.87-45.64-11.58-9.72 2.4-18.51 8.36-23.63 17.06-2.83 5.03-4.78 10.54-3.98 16.4.08.42.13.83.18 1.23.2 1.63.37 3 2.44 3.54 2.17.12 4.4-.29 6.54-.68l.31-.06 6.22-1.2c5.24-1 10.48-2 15.68-3.19a640.08 640.08 0 0 0 44.88-11.08c1.77-.25 1.7-1.62 1.63-3.02l-.03-.6ZM430.1 431.05c-.81-9.8-8.9-17.41-17.88-20.31a39.68 39.68 0 0 0-38.34 9.13c-4.45 4.18-8.39 9.97-9.12 16.14-.08 2.74 2.36 2.78 4.44 2.82.26 0 .52 0 .77.02 3.02-.08 6.05-.14 9.07-.2 9.34-.17 18.7-.35 27.98-1.3 2.4-.21 4.83-.38 7.24-.54 4.26-.3 8.52-.58 12.74-1.14 2.42.03 3.28-2.6 3.1-4.62Z" fill="#000"/></g><g transform="translate(-279 -322)"><path d="M505.05 609.63c4.67 1.28 8.87 4.71 12.16 8.17 1.37 1.66 3.56 3.88 3.05 6.2-.46 2.46-3.75 3.02-5.05.83-2.6-3.53-5.52-6.54-9.45-8.58-2.27-1.46-6.72-.53-6.61-4.14.48-3.02 3.52-2.9 5.9-2.48ZM498 622.96a12.32 12.32 0 0 1 8.78 11.06c1.3 13.18-9.39 25.8-21.75 29.2-12.46 3.65-28.87-1.11-35.07-13.18-2.47-4.2-3.73-9.26-1.94-13.96 1.78-4.05 5.82-5.66 9.97-6.1 5.09-.6 9.55 1.11 13.9 3.54 3.82-4.04 7.74-7.6 12.91-9.8a20.02 20.02 0 0 1 13.2-.76Z" fill="#000"/><path d="M498.91 630.09c3.25 3.38 2.26 9.5.47 13.39-4.28 10.05-15.11 16.13-25.9 15-7.3-1.2-14.31-4.12-18.2-10.77-1.43-2.56-3.43-6.58-2-9.44 2.27-3.76 8.76-3.17 12.27-1.8 2.75.76 5.53 4.08 8.39 3.58 3.67-3.56 6.48-7.47 11.18-9.88 4.32-2.4 9.63-3.3 13.8-.08Z" fill="#8F2E45"/></g><g transform="translate(-279 -322)"></g></g></svg>