<svg xmlns="http://www.w3.org/2000/svg" viewBox="0 0 400 400" fill="none" shape-rendering="auto"><metadata xmlns:rdf="http://www.w3.org/1999/02/22-rdf-syntax-ns#" xmlns:xsi="http://www.w3.org/2001/XMLSchema-instance" xmlns:dc="http://purl.org/dc/elements/1.1/" xmlns:dcterms="http://purl.org/dc/terms/"><rdf:RDF><rdf:Description><dc:title>Adventurer Neutral</dc:title><dc:creator>Lisa Wischofsky</dc:creator><dc:source xsi:type="dcterms:URI">https://www.figma.com/community/file/1184595184137881796</dc:source><dcterms:license xsi:type="dcterms:URI">https://creativecommons.org/licenses/by/4.0/</dcterms:license><dc:rights>Remix of „Adventurer Neutral” (https://www.figma.com/community/file/1184595184137881796) by „Lisa Wischofsky”, licensed under „CC BY 4.0” (https://creativecommons.org/licenses/by/4.0/)</dc:rights></rdf:Description></rdf:RDF></metadata><mask id="viewboxMask"><rect width="400" height="400" rx="0" ry="0" x="0" y="0" fill="#fff" /></mask><g mask="url(#viewboxMask)"><rect fill="#b6e3f4" width="400" height="400" x="0" y="0" /><g transform="translate(-279 -322)"><path d="M617.23 468.82c1.16 1.34 2.37 2.36 2.84 4.14a65.5 65.5 0 0 1-7.98 51.11 65.74 65.74 0 0 1-34.83 27.28 65.88 65.88 0 0 1-36.24 1.27 65.18 65.18 0 0 1-40.77-30.86c-7.18-12.23-9.85-26.73-8.06-40.75.53-3.4 1.75-7.26 5.57-8.09 8.61-1.53 17.56-1.34 26.27-2.27 24.31-1.49 48.65-2.37 73-2.08 6.76-.37 13.46.4 20.2.25Z" fill="#000"/><path d="m607.09 474.28 7.45.37c3.8 14.15 1.78 29.85-5.17 42.73a59.07 59.07 0 0 1-32.1 27.84c-14.68 5.57-31.38 4.73-45.56-1.92a59.34 59.34 0 0 1-29.82-31.09c-4.2-10.22-5.99-22.1-3.63-32.98a17.6 17.6 0 0 1 5.7-1.4c16.9-1.37 33.84-2.38 50.78-3.11-.4 5.34-.18 10.53 2.1 15.47a26.66 26.66 0 0 0 18.61 15.04c4.89.87 9.94.6 14.61-1.13 8.19-2.82 14.36-9.95 16.48-18.27.92-3.9.66-7.59.54-11.55Z" fill="#fff"/><path d="M432.03 480.67c2.01-.23 3.8.3 5.74.68 4.2 9.05 4.82 19.93 3.38 29.69a55.08 55.08 0 0 1-23.63 36.48 54.76 54.76 0 0 1-37.5 8.79 54.68 54.68 0 0 1-38.26-23.14c-6.82-9.7-10.02-21.43-10-33.24 6.52-3.27 13.17-3.72 20.48-5.47 20.5-4.17 41.07-8.1 61.75-11.22 6-1 11.97-2.04 18.04-2.57Z" fill="#000"/><path d="M433.71 486.06c1.44 5.27 2.74 10.43 2.6 15.94-.2 9.5-3 19.08-8.31 27-9.89 15.06-28.07 23.77-46 21.87a49.72 49.72 0 0 1-32.18-16.71c-7.5-8.47-11.57-19.33-12.24-30.58 14.45-3.54 29.14-6.22 43.76-9 1.32 6.48 4.55 12.27 10.11 16.02 9.04 6.32 21.92 5.38 29.9-2.26 6.12-5.72 8.04-13.57 7.2-21.73l5.16-.54Z" fill="#fff"/></g><g transform="translate(-279 -322)"><path d="M414.18 389.84c-5.5-7.26-14.52-9.33-23.2-8.38-13.12 1.9-24.56 8.53-34.46 17.08-10.76 9.47-19.88 21.7-24.72 35.27-.66 1.92-1.27 4.69 1.03 5.74 2.1.24 2.83.08 4.11-1.6 11.58-14.9 26.26-27.61 43.54-35.44 8.2-3.6 17.55-6.09 26.55-5.69 1.03.04 2.1.21 3.15.39 1.67.27 3.35.55 4.96.3 2.9-2.23.74-5.27-.86-7.53l-.1-.14ZM592.9 408.15c-18.2-10.23-38.04-17.1-58.92-18.97-10.05-.75-21.44-.2-30.72 4.09-6.76 3.16-12.37 8.56-13.57 16.22l-.12.95c-.38 2.89-.88 6.8 1.32 8.78 1.99.78 3.6-.34 5.23-1.46.74-.51 1.49-1.03 2.27-1.36 13.86-6.86 30.29-9.28 45.61-9.7 15.48.06 31.36 2.13 46.03 7.2l.48.13c1.46.4 2.74.74 3.89-.62 1.8-1.88.48-4.24-1.5-5.25Z" fill="#000"/></g><g transform="translate(-279 -322)"><path d="M462.23 552.76c5.89 1.34 11.98 4.52 15.69 9.38 1.25 2.25.03 5-2.77 4.63-2.26-1.24-3.96-3.38-6.13-4.8-4.31-2.87-9.86-4.48-15.03-3.68-2.57.45-5.36 1.6-6.83 3.86-1.53 2.1-1.3 4.76-.4 7.05 1.72 4.45 6 7.88 10.25 9.74 2.3 1.06 5.25 1.28 7.3 2.75 1.68 1.8.57 4.36-1.74 4.78-4.61 1.03-8.66 2.66-11.62 6.5-5.5 6.69-4.73 16.7 1.35 22.75 6.13 6.67 17.2 7.5 24.26 1.85 2.43-1.87 3.59-4.35 5.54-6.58 2.97-1.44 5.07 1.04 3.97 3.9-4.62 9.78-16.97 14.5-27.13 11.4a23.97 23.97 0 0 1-17.26-19.26c-1.55-9.44 3.19-18.64 11.31-23.48-5.73-2.95-10.81-7.86-12.37-14.28-1.54-5.3.8-11.27 5.45-14.2 4.69-3.25 10.76-3.16 16.16-2.31Z" fill="#000"/></g><g transform="translate(-279 -322)"></g></g></svg>