<svg xmlns="http://www.w3.org/2000/svg" viewBox="0 0 400 400" fill="none" shape-rendering="auto"><metadata xmlns:rdf="http://www.w3.org/1999/02/22-rdf-syntax-ns#" xmlns:xsi="http://www.w3.org/2001/XMLSchema-instance" xmlns:dc="http://purl.org/dc/elements/1.1/" xmlns:dcterms="http://purl.org/dc/terms/"><rdf:RDF><rdf:Description><dc:title>Adventurer Neutral</dc:title><dc:creator>Lisa Wischofsky</dc:creator><dc:source xsi:type="dcterms:URI">https://www.figma.com/community/file/1184595184137881796</dc:source><dcterms:license xsi:type="dcterms:URI">https://creativecommons.org/licenses/by/4.0/</dcterms:license><dc:rights>Remix of „Adventurer Neutral” (https://www.figma.com/community/file/1184595184137881796) by „Lisa Wischofsky”, licensed under „CC BY 4.0” (https://creativecommons.org/licenses/by/4.0/)</dc:rights></rdf:Description></rdf:RDF></metadata><mask id="viewboxMask"><rect width="400" height="400" rx="0" ry="0" x="0" y="0" fill="#fff" /></mask><g mask="url(#viewboxMask)"><rect fill="#ecad80" width="400" height="400" x="0" y="0" /><g transform="translate(-279 -322)"><path d="M619.37 468.64c3.87 2.6 8.11 5.27 11.16 8.82.3 1.66.07 3.43.04 5.12-1.93.6-3.41 1.04-5.4.26-29.1-10.45-62.1-9.7-91.32-.07-12.55 4.26-25.01 10.37-35.3 18.8-1.32 1.05-3.89 2.91-5.3 1.13-1.7-1.56-.63-3.53.2-5.23 7.13-12.76 18-23.13 30.66-30.34 29.02-16.58 66.88-16.42 95.26 1.5ZM405.49 480.39c11.64 2.56 23.55 8.63 31.2 17.94 2.8 3.9 6.47 8.06 5.88 13.18-1.58-.03-3.27.7-4.53-.5a50.83 50.83 0 0 0-13.92-8.1c-15.2-5.92-32.5-7.15-48.6-5.03-12.43 1.78-26.06 5.7-36 13.69-1.9 1.3-3.17 2.8-5.67 1.81a5.46 5.46 0 0 1 .33-6.17c16-21.77 45.05-31.82 71.31-26.81Z" fill="#000"/></g><g transform="translate(-279 -322)"><g fill="#000"><path d="M517.07 379.66c.86-.91 2.17-2.3 1.77-3.56-.35-2.45-3.58-3.11-5.22-1.46a221.7 221.7 0 0 0-8.34 7.33c-2.16 1.96-4.3 3.92-6.5 5.8a117.9 117.9 0 0 1-3.06 2.73c-2.64 2.3-5.21 4.56-7.32 7.5.33.33.6.68.88 1.02.72.9 1.4 1.74 2.73 1.81 1.5-.08 2.71-1.13 3.82-2.1l.41-.35c4.3-4 8.7-7.9 13.1-11.8 2.52-2.24 5.05-4.47 7.55-6.73l.06-.07.12-.12ZM539.69 378.66c.54-1.8-.18-2.95-1.6-4-2-.34-3.84.74-5.58 1.76-.44.26-.87.51-1.3.74-4.43 2.64-8.92 5.2-13.4 7.77-4.83 2.76-9.66 5.51-14.4 8.37-1.63.86-1.65 2.04-1.68 3.44 0 .45-.02.93-.08 1.42.46.1.9.24 1.31.38 1.2.4 2.27.75 3.58-.05 5.06-2.8 10.07-5.7 15.09-8.62a959.63 959.63 0 0 1 14.42-8.28c1.36-.8 2.87-1.67 3.65-2.94ZM566.39 378.4c2.1-.74 4.24.22 4.44 2.6-.08 2.3-1.76 2.9-3.53 3.51l-.77.28c-12.18 3.72-24.35 7.5-36.5 11.31-.37.09-.73.2-1.08.3-1.34.4-2.64.78-4 .08-1.82-1.26-1.8-4.32.36-5.22 1.8-.82 3.73-1.38 5.65-1.93a4048.39 4048.39 0 0 0 14.1-4.35c7.1-2.22 14.2-4.44 21.33-6.58ZM589.38 390.36c1.02-1.63.62-2.97-.45-4.43-2.25-.73-4.9-.11-7.4.47-.87.2-1.72.4-2.52.53-2.84.58-5.7 1.14-8.54 1.7h-.02c-4.14.81-8.27 1.62-12.4 2.5-1.87.47-3.69 1.64-3.1 3.87.65 2.02 2.02 2.45 4.03 2.12 4.01-.7 8-1.52 12-2.35 3.85-.8 7.7-1.6 11.56-2.27l1.3-.26c1.93-.36 4.05-.75 5.54-1.88ZM405.8 394.7c1.93 1.26 3.85 2.5 5.81 3.7.74.48 1.5.94 2.25 1.4 1.73 1.05 3.47 2.11 5 3.4 1.7 1.35 1.2 4.27-.83 5-1.8.35-3.06-.44-4.43-1.29l-.94-.56c-4.3-2.78-8.62-5.51-12.95-8.25l-4.17-2.64c-.1-.08-.22-.17-.35-.25l-.37-.27c-1.1-.75-2.42-1.66-2.4-2.93-.35-2.43 2.22-4.08 4.37-2.87 3.08 1.7 6.05 3.64 9.01 5.57Z"/><path d="M383.94 395.53a45.88 45.88 0 0 0-5.95-1.72c-2.5-.5-4.12 2.02-3.31 4.28 1.14 1.27 2.56 1.75 4.08 2.26l.4.14.32.1c4.02 1.26 8.03 2.55 12.03 3.85h.03c4.14 1.34 8.27 2.68 12.42 3.96 2.46.78 4.88.57 5.36-2.42-.17-2.11-2-2.8-3.72-3.44l-.15-.05-.23-.09-.5-.2c-6.06-1.95-12.14-3.89-18.22-5.83-.85-.26-1.7-.55-2.56-.84ZM587.13 395.34c3.45-.22 6.9-.28 10.37-.34 2.5-.05 5-.1 7.5-.2.4.03.84.03 1.3.03 1.67 0 3.6 0 4.35 1.53 1.26 1.74-.2 3.78-2.02 4.19-2.91.62-6.04.6-9.1.58-1.19 0-2.37-.01-3.53.02-1 0-2 .04-3 .07-1.68.05-3.36.1-5.04.04-1.22 0-3.12-.35-3.5-1.7a3 3 0 0 1 2.67-4.22ZM360.28 402.87c-2.04-.1-4.17-.2-6.08.32-1.5 1.2-1.47 3.44-.15 4.8 1.66.7 3.64.86 5.45 1l.16.01.32.03c3.43.16 6.85.37 10.27.58 3.92.25 7.83.49 11.74.66.85.02 1.72.1 2.6.18 1.84.18 3.72.35 5.44-.06a2.78 2.78 0 0 0 1.12-4.59c-.84-.99-1.87-1.05-2.98-1.12-.38-.03-.77-.05-1.16-.11l-12.51-.81-12.5-.81c-.57-.01-1.14-.04-1.73-.07ZM348.97 411.64l4.48-.33c4.19-.34 8.4-.68 12.56-.42 2.93.26 3.13 4.75.25 5.42-2.9.73-5.97.84-9.03.96-1.76.06-3.52.13-5.23.31-1.17.04-2.36.15-3.55.25-2.47.22-4.96.44-7.36.12-2.45-.43-2.74-4.43-.52-5.35 1.77-.65 3.79-.73 5.76-.8.9-.04 1.79-.07 2.64-.16ZM345.51 425.36c2.91-.95 2.78-5.26-.48-5.63-2.85.03-5.72.55-8.57 1.06-1.35.24-2.69.48-4.02.67-.74.18-1.6.3-2.52.4-2.27.28-4.78.6-6.04 2.18-1.16 2.39.53 4.6 3.07 4.38 6.17-.74 12.5-1.76 18.56-3.06Z"/></g></g><g transform="translate(-279 -322)"><path d="M480.96 561.69c4.71-.58 10.26.05 13.71 3.66 3.78 3.9 4.15 9.42 3.22 14.53-2.65 11.8-12.87 21.43-24.84 23.27-7.5 1.5-15.57-.3-22.15-4.05-5.15-2.9-8.86-7.64-11.08-13.06-1.31-3.29-1.62-7.23-.43-10.59 1.3-3.11 4.12-5 7.34-5.7 5.66-1.83 11.66.27 16.63 3.05 4.58-5.09 10.57-10.17 17.59-11.1Z" fill="#000"/><path d="M480.51 567.7c3.3-1.03 7.38-.57 10 1.78 2.06 2.03 2.11 5.89 1.71 8.56-1.84 9.78-10.28 17.74-20.07 19.32-6.52 1.3-13.19-.33-18.84-3.68-4.3-2.52-7.44-6.98-8.81-11.72-.7-2.45-.36-5.07 2.04-6.38 2.59-1.08 5.76-1.02 8.48-.5 3.48.7 5.8 2.92 8.97 4.33 1.93-.09 2.62-1.39 3.81-2.64 3.32-3.94 7.69-7.62 12.7-9.07Z" fill="#8F2E45"/></g><g transform="translate(-279 -322)"><path fill-rule="evenodd" clip-rule="evenodd" d="M589 446.02c12.76.73 25.74 1.84 37.38 7.57 1.16.52 2.25 1.22 3.34 1.9 1.38.9 2.77 1.77 4.29 2.3 2.3.37 4.64.44 7 .52 2.67.09 5.35.18 7.95.7 2.16.77 2.3 2.83 2.42 4.8v1c-.02 2.19-.04 4.24-2.33 5.37-2.21.25-4.46.24-6.7.23h-3.17c1.26 18.16-2.42 36.45-11.5 52.28-9.66 17.1-25.26 30.69-43.86 37.2a78.74 78.74 0 0 1-34.82 4 81.36 81.36 0 0 1-42.57-18.29 88.7 88.7 0 0 1-28.74-44.53c-.9-2.9-1.46-5.9-2.02-8.9-.6-3.25-1.2-6.5-2.24-9.6-1.98-5.44-10.5-8.81-14.51-3.67-3.27 3.72-3.25 8.08-3.22 12.6.01 1.16.02 2.33-.03 3.5-.81 27.02-17.12 53.14-41.27 65.38-14.13 7.32-30.77 9.4-46.2 5.33a62.04 62.04 0 0 1-30.72-19.2c-10.8-12.26-16.55-28.93-16.8-45.17-.5-.12-1-.18-1.48-.24-1.41-.17-2.72-.33-3.35-1.96l-.07-.46c-.32-2.13-.83-5.46 1.42-6.47 1-.5 2.03-.92 3.05-1.33 2.19-.89 4.33-1.76 6.2-3.46 10.62-9.27 24.1-13.95 37.58-17.36a151.97 151.97 0 0 1 68.93-.89c5.82 1.39 12.08 1.59 17.77-.43 7.08-2.38 14.84-3.5 22.28-2.54 5.8.56 11.89.35 17.36-1.87 12.15-4.65 23.96-9.15 36.6-12.3a201.86 201.86 0 0 1 62.03-6Zm-25 12.94c17.65-.96 36.07-.78 53.28 3.73 7.14 1.68 13.37 8.09 14.26 15.47 1.3 7.9.28 15.57-1.36 23.32a80.57 80.57 0 0 1-24.67 39.05c-10.5 9.05-23.72 15.36-37.5 17.2-14.95 2.3-30.74-.6-44.13-7.61-14-7.22-25.74-19.05-33.2-32.89-5.27-10.71-8.3-23.62-6.34-35.5a98.03 98.03 0 0 1 20.17-10.3c18.9-7.2 39.37-10.89 59.48-12.47Zm-134.78 19.81a139.53 139.53 0 0 0-34.7-1.92c-15.93 1.2-31.36 3.69-46.39 9.31-5.22 2.04-10.6 4.52-15.04 7.97-4.12 2.85-5.47 9.18-5.69 13.85.33 8.92 3.64 17.87 8.04 25.57 7.92 13.73 21.5 23.9 37.06 27.1 9.84 2.21 19.97 1.39 29.56-1.56 26.32-8.35 46.38-34.3 46.64-62.1a46.96 46.96 0 0 0-1.45-10c-.29-1.64-1.75-2.49-3.1-3.26l-.58-.34c-4.48-2.24-9.46-3.65-14.35-4.63Z" fill="#000"/></g></g></svg>