<svg xmlns="http://www.w3.org/2000/svg" viewBox="0 0 400 400" fill="none" shape-rendering="auto"><metadata xmlns:rdf="http://www.w3.org/1999/02/22-rdf-syntax-ns#" xmlns:xsi="http://www.w3.org/2001/XMLSchema-instance" xmlns:dc="http://purl.org/dc/elements/1.1/" xmlns:dcterms="http://purl.org/dc/terms/"><rdf:RDF><rdf:Description><dc:title>Adventurer Neutral</dc:title><dc:creator>Lisa Wischofsky</dc:creator><dc:source xsi:type="dcterms:URI">https://www.figma.com/community/file/1184595184137881796</dc:source><dcterms:license xsi:type="dcterms:URI">https://creativecommons.org/licenses/by/4.0/</dcterms:license><dc:rights>Remix of „Adventurer Neutral” (https://www.figma.com/community/file/1184595184137881796) by „Lisa Wischofsky”, licensed under „CC BY 4.0” (https://creativecommons.org/licenses/by/4.0/)</dc:rights></rdf:Description></rdf:RDF></metadata><mask id="viewboxMask"><rect width="400" height="400" rx="0" ry="0" x="0" y="0" fill="#fff" /></mask><g mask="url(#viewboxMask)"><rect fill="#d1d4f9" width="400" height="400" x="0" y="0" /><g transform="translate(-279 -322)"><path d="M554.99 424.09a65.3 65.3 0 0 1 43.19 14.7c9.2 7.44 16.2 17.65 20.32 28.7 2.1 5.57 2.58 11.14 3.64 16.93-1.32 1.48-1.69 3.34-4.05 3.02-7.04-.31-13.96-2.04-21.03-2.22-8.77-.1-17.38-.37-26.1.95-9.83 1.63-19.5 2.64-29.06 5.72a175.1 175.1 0 0 0-32.49 12.44c-3.35 1.62-6.46 3.76-9.88 5.22-2.08.77-4.42.35-5.29-1.92-2.28-7.19-2.82-15.19-2.45-22.69.94-16 8.12-31.4 19.67-42.5a65.08 65.08 0 0 1 43.54-18.36Z" fill="#000"/><path d="M557 429.85c15.33-.23 30.4 6.15 41.39 16.75 9.87 9.5 15.83 22.19 17.7 35.7-14.9-2.86-30-3.76-45.12-2.5-6 .7-11.93 1.88-17.87 2.89-.9-3.26-1.74-6.35-3.55-9.25-5.97-9.96-19.33-15.24-30.34-11.14a25.88 25.88 0 0 0-15.95 14.9c-3.08 7.38-2.28 15.5 1.22 22.6l-5.74 2.9c-5.12-21.7 3.1-45.52 20.44-59.52 10.54-8.6 24.2-13.57 37.83-13.33Z" fill="#fff"/><path d="M411.45 452.57a55 55 0 0 1 27.77 32.17c3.17 9.5 3.14 19.25 1.59 29.04l-2.88 1.57a151.25 151.25 0 0 0-29.91-5.44c-17.9-1.13-36.17-1.69-54.05.02-6.9.17-13.47 2.03-20.42 1.58-.89-2.44-1.7-4.84-1.7-7.47-.18-10.31 2.22-20.81 7.45-29.76a55.03 55.03 0 0 1 72.15-21.7Z" fill="#000"/><path d="M397.24 453.61a49.57 49.57 0 0 1 27.52 16.64 49.91 49.91 0 0 1 11.07 38.62 83.07 83.07 0 0 0-12.33-3.02 232.53 232.53 0 0 0-37.65-2.38c-.06-3.82.07-7.4-1.47-10.98a23.17 23.17 0 0 0-18.35-14.5c-10.08-1.52-20.42 4.34-24.35 13.74-2.23 4.9-1.78 9.64-1.96 14.85-1.73-1.26-1.94-1.37-2-3.52-.53-12.06 4.07-24.34 11.93-33.45 11.5-13.5 30.27-19.84 47.6-16Z" fill="#fff"/></g><g transform="translate(-279 -322)"><path d="M613.54 401.51c1.6 1 1.08 2.86 1.24 4.48-.06 11.34-.05 22.7-.12 34.04.32 2.75-2.42 4.22-4.62 5-40 13.74-80.12 27.25-120.05 41.12-2.53.2-2.84-1.75-3.5-3.66-1.64-6-3.31-11.98-5.02-17.95.97 5.75.98 11.66 1.36 17.47-.02 1.44.45 3.94-1 4.85-1.94 1.4-4.06.13-4.59-2.03-3.64-12.73-7.02-25.58-10.66-38.32-.39-1.83-.65-3.9 1.36-4.88 2.11-.5 3.41.47 4 2.44 1.27 4.55 2.55 9.11 3.68 13.7-.73-5.24-.94-10.5-1.18-15.77 0-1.27-.14-3.73 1.66-3.8 1.47-.25 2.98-.37 4.43-.7 41.23-11.75 82.37-23.45 123.6-35.23 3.27-.87 6.02-2.08 9.4-.76ZM324 433.87c13.64 1.39 27.36 1.44 41 2.58 21.04 1.05 42.11 2.67 63.14 3.42 7.8.78 15.61 1.12 23.44 1.68 2.77 2.19 1.08 8.08 1.91 11.33.56-2.97.18-6.9 1.92-9.46a2.85 2.85 0 0 1 4.76 2.56c-2.36 14.03-4.77 28.14-7.02 42.18-.8 2.93-4.48 2.56-5.29-.15-.27-4.92-.21-9.89-.28-14.83-1.03 4.3-1.47 8.69-2.47 12.98-.42 1.64-1.16 2.84-3.1 2.4-39.47-6.89-79.39-14.23-118.86-21.3-1.88-.19-2.83-1.45-3.09-3.25-1.45-7.98-2.5-16.04-4.12-24-.23-1.7-.74-3.13.56-4.57 2.12-2.3 4.72-1.68 7.5-1.57Z" fill="#000"/></g><g transform="translate(-279 -322)"><path d="M517 555.43c13.39-.24 28.7 3.46 38.6 12.98 5.97 5.58 9.72 13.37 9.9 21.58.32 10.21-3.84 19.58-9.89 27.58-9.04 11.85-21.87 20.72-35.47 26.57-7.32 2.84-14.4 5.71-22.15 7.24a86.28 86.28 0 0 1-50.03-5.3c-13.98-6.02-27.24-14.25-38.31-24.72-5.42-5.3-10.58-11.7-13.28-18.84-2.03-5.48-2.34-11.97 1.22-16.9 3.69-5.38 9.98-7.75 16.17-8.85 12.6-1.77 24.45.42 36.57 3.76 7.36-6.86 15.88-12.06 25.02-16.2 13-5.75 27.38-9.3 41.64-8.9Z" fill="#000"/><path d="M542.47 566.35c-3.47 2.67-7.33 4.74-10.83 7.34-4.3 4.07-7.6 10.96-12.77 14.1-5.16.83-10.5-3.33-15.18-1.12a174.6 174.6 0 0 1-28.5 7.9c-14.13 2.57-29.47 3.77-43.63.89-4.3-1.11-7.12 1.32-11.46 1.88-4.37-4.22-7.53-9.21-12.73-12.6 12.76-5.3 28.76-1.98 41.63 1.52 3.92 1.25 6.04-2.46 8.8-4.48 13.48-10.73 30.18-17.54 47.23-19.85 12.66-1.87 25.64-.74 37.44 4.4Z" fill="#fff"/><path d="M547.96 569.91c7.13 4.3 11.65 12.83 11.82 21.1-.18 7.43-2.97 13.98-6.8 20.23-6.37-2.56-13.17-3.29-20-2.88-14.35.89-28.53 4.42-41.9 9.67-9.04 3.64-18.05 8.23-25.74 14.27a32.46 32.46 0 0 0-8.76 10.38c-7.74-2.15-14.6-5.75-21.53-9.73-9.94-5.85-19.02-12.62-26.5-21.47-3.77-4.64-7.55-10.34-7.78-16.5-.14-2.32.91-4.42 1.72-6.54 5.4 3.65 9.36 8.64 14.22 12.85 4 3.4 9.21-.66 13.75.07 5.81.96 11.66 1.4 17.53 1.74a174.18 174.18 0 0 0 59.65-11.55c4.16.86 9.89 2.73 13.97 1.05 4.92-2.83 8.62-8.57 12.18-12.9 1.47-1.75 3.81-2.92 5.71-4.17 2.9-1.75 5.48-4.02 8.46-5.62Z" fill="#8F2E45"/><path d="M536 614.18c4.54-.1 8.95.63 13.3 1.9-9.23 11.12-22.42 19.3-35.85 24.38-16.26 6.04-34.23 8.32-51.21 3.94a34.42 34.42 0 0 1 6.76-7.39c8.9-7.26 20.2-12.2 31-15.97 11.5-3.83 23.85-6.67 36-6.86Z" fill="#EA869E"/></g><g transform="translate(-279 -322)"></g></g></svg>