<svg xmlns="http://www.w3.org/2000/svg" viewBox="0 0 400 400" fill="none" shape-rendering="auto"><metadata xmlns:rdf="http://www.w3.org/1999/02/22-rdf-syntax-ns#" xmlns:xsi="http://www.w3.org/2001/XMLSchema-instance" xmlns:dc="http://purl.org/dc/elements/1.1/" xmlns:dcterms="http://purl.org/dc/terms/"><rdf:RDF><rdf:Description><dc:title>Adventurer Neutral</dc:title><dc:creator>Lisa Wischofsky</dc:creator><dc:source xsi:type="dcterms:URI">https://www.figma.com/community/file/1184595184137881796</dc:source><dcterms:license xsi:type="dcterms:URI">https://creativecommons.org/licenses/by/4.0/</dcterms:license><dc:rights>Remix of „Adventurer Neutral” (https://www.figma.com/community/file/1184595184137881796) by „Lisa Wischofsky”, licensed under „CC BY 4.0” (https://creativecommons.org/licenses/by/4.0/)</dc:rights></rdf:Description></rdf:RDF></metadata><mask id="viewboxMask"><rect width="400" height="400" rx="0" ry="0" x="0" y="0" fill="#fff" /></mask><g mask="url(#viewboxMask)"><rect fill="#f2d3b1" width="400" height="400" x="0" y="0" /><g transform="translate(-279 -322)"><path d="m619.86 481.79 2.63 1.13c-.12 1-.28 2-.47 2.98-2.21 3.85-5.93 6.93-9 10.11a93.33 93.33 0 0 1-19.16 12.88 85.49 85.49 0 0 1-45.84 8.4c-19.45-1.64-38.43-9.82-54.2-21.1-1.4-1.13-2.88-1.98-2.47-4.04.53-2.48 3.96-3.31 6.1-2.45 21.22 6.28 42.64 6.72 64.56 5.45 16.26-1.55 32.06-4.27 47.52-9.68 3.54-1.21 6.78-2.8 10.33-3.68ZM440.55 492.43c2.8 1.36 2.2 4.42.14 6.19-10.83 9.97-25.3 16.29-39.72 18.8-7.78 1-15.1 2.3-22.95 1.12-13.82-1.06-27.27-5.1-39-12.53-2.16-1.4-4.68-2.9-6.2-5-.62-2.53.72-3.88 3.14-4.18 2.71.28 5.43 1.35 8.08 2.03 7.56 2.13 15.22 3.03 23 3.79 21.45 1.58 43.69-.86 64.16-7.53 2.94-.78 6.3-2.97 9.35-2.69Z" fill="#000"/></g><g transform="translate(-279 -322)"><path d="M456.01 380.37c2.26-.07 2.85 1.7 2.65 3.64-.5 4.68-.77 9.78-2.32 14.23-1.33.39-2.66.58-4.03.82-1.12-4.8 0-10.22.7-15.09.37-1.71.78-3.82 3-3.6ZM476.79 386.65c.03 3.21-.36 6.36-.67 9.55 41.69.52 83.32.38 125 .75 2.14.04 3.97.86 5.9 1.64-.6 1.48-.22 3.83-2.24 4.1-8.05 1.3-16.58.5-24.74.87-17.35.62-34.7 1-52.06 1.53-17.03.2-34 1.25-51.05 1.42-3.3.39-6.05-2.72-7.2-5.47.02-4.5 1.02-9.15 2.06-13.5 1.28-2.48 2.83-1.67 5-.9ZM439.84 392.18c-.1 4.87-.05 10.81-2.28 15.24-3.22 1.5-7.12 1.79-10.59 2.47-25.65 4.69-51.32 9.34-76.96 14.08-4.24.69-8.7 2.15-13 2.04-2.62-.48-3.32-3.75-.86-5 3.2-1.42 6.95-1.75 10.33-2.59 29.1-6.7 58.15-13.6 87.24-20.32.4-1.91.8-3.81 1.27-5.7 1.61-.21 3.23-.24 4.85-.23Z" fill="#000"/></g><g transform="translate(-279 -322)"><path d="M469.99 539.64c9.45-.62 18.37 5.2 25.18 11.18 9.6 8.8 17.31 20.09 23.54 31.49a209.12 209.12 0 0 1 23.56 76.68c.5 4.4 1.53 8.68-2.43 11.86-7.32 3.5-15.84 4.95-23.84 6-15.97 1.39-32.52-.84-48-4.84-2.35-.75-4.52-.89-5.43-3.57a210.22 210.22 0 0 1-17.97-65.91c-1.01-12.34-1.07-24.9 1.8-37.02 1.62-6.56 4.25-13.27 8.72-18.42 3.72-4.3 9.1-7.4 14.87-7.45Z" fill="#000"/><path d="M474.49 545.63c9.4 2.08 17.07 9.35 23.35 16.25-13.95 5.98-30.9 9.6-45.86 5.81 1.27-6.17 3.77-12.91 8.25-17.5 3.6-3.78 9.07-5.9 14.26-4.56Z" fill="#fff"/><path d="M501.86 566.88c12.64 16.83 21.52 36.66 27.44 56.79-6.29 1.3-11.94 3.96-17.5 7.1-11.57 6.75-22.43 15.88-30.04 26.97-2.28 3.53-4.69 6.5-4.54 10.94a170.9 170.9 0 0 0-8.96-2.06c-8.42-17.85-13.97-37.13-16.92-56.63-1.6-12.46-2.48-24.55-.38-37.02 5.4 1.04 10.5 2.3 16.05 1.94 5-.39 10.05-.95 15-1.89 6.89-1.27 13.25-3.89 19.85-6.14Z" fill="#8F2E45"/><path d="M527.55 629.64c1.5-.65 2.4.12 3.76.63 2.74 11.73 5.07 23.5 5.63 35.56-7.95 3.25-16.2 4.63-24.68 5.56-10.48.94-20.25-.66-30.6-1.8a74.98 74.98 0 0 1 17.9-23c8.13-7.1 17.68-13.57 27.99-16.95Z" fill="#EA869E"/></g><g transform="translate(-279 -322)"></g></g></svg>