<svg xmlns="http://www.w3.org/2000/svg" viewBox="0 0 400 400" fill="none" shape-rendering="auto"><metadata xmlns:rdf="http://www.w3.org/1999/02/22-rdf-syntax-ns#" xmlns:xsi="http://www.w3.org/2001/XMLSchema-instance" xmlns:dc="http://purl.org/dc/elements/1.1/" xmlns:dcterms="http://purl.org/dc/terms/"><rdf:RDF><rdf:Description><dc:title>Adventurer Neutral</dc:title><dc:creator>Lisa Wischofsky</dc:creator><dc:source xsi:type="dcterms:URI">https://www.figma.com/community/file/1184595184137881796</dc:source><dcterms:license xsi:type="dcterms:URI">https://creativecommons.org/licenses/by/4.0/</dcterms:license><dc:rights>Remix of „Adventurer Neutral” (https://www.figma.com/community/file/1184595184137881796) by „Lisa Wischofsky”, licensed under „CC BY 4.0” (https://creativecommons.org/licenses/by/4.0/)</dc:rights></rdf:Description></rdf:RDF></metadata><mask id="viewboxMask"><rect width="400" height="400" rx="0" ry="0" x="0" y="0" fill="#fff" /></mask><g mask="url(#viewboxMask)"><rect fill="#ffdfbf" width="400" height="400" x="0" y="0" /><g transform="translate(-279 -322)"><path d="M589.31 432.68c12.94 7.4 23.4 19.43 28.46 33.5 5.72 14.35 5.72 30.61.54 45.12-1.04 2.9-2.88 5.22-6.28 4.77-15.08-.73-29.98.14-45.06.56-10.03 1.1-20.04 2.15-30 3.79-10.45 1.82-20.62 4.13-30.98 6.08-4.32-.12-5.27-4.23-7.16-7.33-12.06-22.95-8.72-52.48 8.27-72.08 9.79-11.52 23.84-19.77 38.83-22.06a65.12 65.12 0 0 1 43.38 7.65Z" fill="#000"/><path d="M558 429.86c14.45 0 28.8 6.03 39.38 15.78a60.1 60.1 0 0 1 18.5 35.34c1.21 10 .36 20.16-3.44 29.56l-3.28-.37c1.67-5.12 2.73-10.04 1.39-15.4-1.92-10.81-10.74-19.63-21.59-21.4-5.35-.62-10.64-.41-15.57 1.95a26.64 26.64 0 0 0-15.32 19.72c-1.1 5.72-.02 11.42 2.43 16.64a286.92 286.92 0 0 0-34 5.18c-6.73 1.22-13.35 3.24-20.15 4.12-7.35-12.03-10.84-27.07-8.3-41.03a59.67 59.67 0 0 1 18.97-34.92c11.08-9.99 26.04-15.66 40.98-15.17Z" fill="#fff"/><path d="M392.02 447.07a54.82 54.82 0 0 1 33.45 15.5c9.47 9.26 15.55 22.16 16.25 35.43.8 10.74-1.6 21.5-6.91 30.87-1.13 1.88-2.87 4.02-5 4.71-3.03.8-6.6-.16-9.61-.83a304.26 304.26 0 0 0-26.28-5.18c-12.88-.84-26.08-.9-38.96.07-4.8.32-9.78 1.33-14.56 1-2.32-1.1-3.7-4.21-4.57-6.48-3.37-8.83-4.98-18.73-3.32-28.12a54.87 54.87 0 0 1 59.5-46.97Z" fill="#000"/><path d="M401.48 454.74a49.3 49.3 0 0 1 29.58 25.18c4.64 9.38 6.55 20.52 4.31 30.82-1.3 6.2-3.31 12.86-7.13 18l-4.14-.7c4.13-4.48 6.9-9.84 6.82-16.07.38-10.5-7.04-19.98-17.18-22.44-10.75-2.93-22.53 3.32-26.5 13.64-2.56 5.93-1.93 12.1.32 17.99-7.6.3-15.02-.37-22.59.38-7.31.65-14.63 1.12-21.93 1.8-.66-1.14-1.33-2.25-1.9-3.45-7.24-17.69-2.92-38.73 10.39-52.36 12.64-13.18 32.51-18.39 49.95-12.79Z" fill="#fff"/></g><g transform="translate(-279 -322)"><path d="M613.54 401.51c1.6 1 1.08 2.86 1.24 4.48-.06 11.34-.05 22.7-.12 34.04.32 2.75-2.42 4.22-4.62 5-40 13.74-80.12 27.25-120.05 41.12-2.53.2-2.84-1.75-3.5-3.66-1.64-6-3.31-11.98-5.02-17.95.97 5.75.98 11.66 1.36 17.47-.02 1.44.45 3.94-1 4.85-1.94 1.4-4.06.13-4.59-2.03-3.64-12.73-7.02-25.58-10.66-38.32-.39-1.83-.65-3.9 1.36-4.88 2.11-.5 3.41.47 4 2.44 1.27 4.55 2.55 9.11 3.68 13.7-.73-5.24-.94-10.5-1.18-15.77 0-1.27-.14-3.73 1.66-3.8 1.47-.25 2.98-.37 4.43-.7 41.23-11.75 82.37-23.45 123.6-35.23 3.27-.87 6.02-2.08 9.4-.76ZM324 433.87c13.64 1.39 27.36 1.44 41 2.58 21.04 1.05 42.11 2.67 63.14 3.42 7.8.78 15.61 1.12 23.44 1.68 2.77 2.19 1.08 8.08 1.91 11.33.56-2.97.18-6.9 1.92-9.46a2.85 2.85 0 0 1 4.76 2.56c-2.36 14.03-4.77 28.14-7.02 42.18-.8 2.93-4.48 2.56-5.29-.15-.27-4.92-.21-9.89-.28-14.83-1.03 4.3-1.47 8.69-2.47 12.98-.42 1.64-1.16 2.84-3.1 2.4-39.47-6.89-79.39-14.23-118.86-21.3-1.88-.19-2.83-1.45-3.09-3.25-1.45-7.98-2.5-16.04-4.12-24-.23-1.7-.74-3.13.56-4.57 2.12-2.3 4.72-1.68 7.5-1.57Z" fill="#000"/></g><g transform="translate(-279 -322)"><path d="M521.18 567.25c1.55-.38 3.33-1 4.93-.74 2 .78 2.04 3 1.05 4.64-4.12 2.62-10 2.81-14.26 4.89 3.42 13.46 3.76 27.5 0 40.93-3.26 12.19-10.2 24.02-20.7 31.3a35.76 35.76 0 0 1-24.22 6.54c-11.52-1.1-21.7-8.19-28.53-17.28-9.5-12.6-13.35-27.92-13.48-43.53.34-5.62.98-11.21 2.11-16.73-2.4-.78-5.59-1.13-7.5-2.84-.56-1.23-.2-2.85-.25-4.18 4.52-.02 8.3 1.66 12.66 2.56 29.55 5.95 59.5 3.04 88.2-5.56Z" fill="#000"/><path d="M506.94 577.11c5.23 17.71 3.27 38.43-6.69 54.17-4.13 6.48-9.68 11.96-16.73 15.17a29.31 29.31 0 0 1-25.4-.56c-8.06-4.02-14.57-11.42-18.7-19.32-7.58-14.67-9.44-32-5.52-48.03 10.46 2.5 21.07 3.05 31.77 3.27-1 6.74-.96 13.39-1.18 20.18 0 1.9-.16 4.1.5 5.92 1.09 1.71 4.65 1.2 4.75-1.06.58-8.4-.13-16.75 1.5-25.13 12-.25 24-2.21 35.7-4.62Z" fill="#EA869E"/></g><g transform="translate(-279 -322)"></g></g></svg>