<svg xmlns="http://www.w3.org/2000/svg" viewBox="0 0 400 400" fill="none" shape-rendering="auto"><metadata xmlns:rdf="http://www.w3.org/1999/02/22-rdf-syntax-ns#" xmlns:xsi="http://www.w3.org/2001/XMLSchema-instance" xmlns:dc="http://purl.org/dc/elements/1.1/" xmlns:dcterms="http://purl.org/dc/terms/"><rdf:RDF><rdf:Description><dc:title>Adventurer Neutral</dc:title><dc:creator>Lisa Wischofsky</dc:creator><dc:source xsi:type="dcterms:URI">https://www.figma.com/community/file/1184595184137881796</dc:source><dcterms:license xsi:type="dcterms:URI">https://creativecommons.org/licenses/by/4.0/</dcterms:license><dc:rights>Remix of „Adventurer Neutral” (https://www.figma.com/community/file/1184595184137881796) by „Lisa Wischofsky”, licensed under „CC BY 4.0” (https://creativecommons.org/licenses/by/4.0/)</dc:rights></rdf:Description></rdf:RDF></metadata><mask id="viewboxMask"><rect width="400" height="400" rx="0" ry="0" x="0" y="0" fill="#fff" /></mask><g mask="url(#viewboxMask)"><rect fill="#9e5622" width="400" height="400" x="0" y="0" /><g transform="translate(-279 -322)"><path d="M506.03 461.12c5.5-1.16 11.66 2.44 16.92 3.98 22.15 7.08 45.9 9.46 69.06 7.74 6.23-.6 12.8-2.4 19.04-2 6.2.65 10.4 6.06 10.95 12.05.76 10.8-.8 22-5.08 32a65.62 65.62 0 0 1-30.44 32.6c-21.35 11.07-48.35 9-67.75-5.22-14.69-10.5-24.7-27.34-26.67-45.3-.85-8.7-.38-17.4 2.09-25.8 1.4-5.24 6.78-9 11.88-10.05ZM428.25 466.75c3.63 2.23 5.82 6.6 7.78 10.25 5.54 10.8 7 23.18 4.95 35.07a55.32 55.32 0 0 1-14.73 28.2 55.06 55.06 0 0 1-72.17 5.63 54.77 54.77 0 0 1-21.34-34.89c-.57-3.68-1.52-7.6.15-11.13a12.41 12.41 0 0 1 10.11-7.6c4.94-.59 9.87-1.18 14.78-2 18.38-3.3 35.26-11.25 50.36-22.12 5.88-5.11 13.54-5.46 20.11-1.41Z" fill="#000"/><path d="M513.41 467.65c12.21 5.03 25.5 7.97 38.57 9.71 15.64 2.02 31.39 2.59 47.04.31 3.87-.56 8.11-1.82 12-1.53 2.42.08 4.34 2.67 4.81 4.87a59.18 59.18 0 0 1-5.45 34.37 59.08 59.08 0 0 1-31.6 29.27 58.37 58.37 0 0 1-33.76 3.03 59.62 59.62 0 0 1-40.59-30.1c-6.9-12.96-9.37-29-5.07-43.17 1.67-6.19 8-9.93 14.05-6.76ZM427.77 474.23a51.2 51.2 0 0 1 8.4 23.72c1.23 16.4-6.14 32.97-19.26 42.91a50.17 50.17 0 0 1-30.92 10.3 50.1 50.1 0 0 1-31.68-12.48 49.18 49.18 0 0 1-16.54-33.7c-.47-3.2 2.13-6.47 5.26-6.96 3.24-.67 6.63-.78 9.92-1.18 18.5-2.26 36.6-9.6 52.19-19.69 3.1-1.92 5.86-4.31 8.97-6.18 4.4-2.3 10.95-1.13 13.66 3.26Z" fill="#fff"/><path d="M533.54 496.92c12.3-1.1 23.89 8.53 24.08 21.08.84 11.05-7.56 21.22-18.45 22.83-11.9 2.14-23.93-6.81-25.4-18.8-1.93-12.29 7.5-23.97 19.77-25.1ZM400.49 505.5c5.96-1.31 12.63.86 17.06 4.96a19.5 19.5 0 0 1 3.72 23.81c-4.15 7.79-13.62 11.6-22.08 9.37-8.34-2.18-14.54-9.95-14.42-18.64-.3-9.44 6.57-17.6 15.72-19.5Z" fill="#000"/></g><g transform="translate(-279 -322)"><path d="M614 406.99c-24.74-23-58.3-35.43-92-35.08-8.9.26-17.67 1.52-26.42 3.12-1.5 3.24-2.51 6.6-3.52 9.98-.37 1.22-.73 2.44-1.12 3.66l-.13-1.4a170 170 0 0 0-1.31-11.32l-3.23-1.56c-.21.37-.5.74-.8 1.12-.6.76-1.23 1.55-1.26 2.44-.1 3.74.3 7.48.71 11.22.3 2.78.6 5.57.7 8.37.08.67.12 1.4.16 2.16.13 2.41.28 5.08 1.65 6.85 2.83.76 6.04-.34 9.02-1.36 1.06-.36 2.08-.7 3.05-.96 18.93-5.52 39.16-6.87 58.7-4.41 20 2.31 40.08 8.25 57.45 18.55 1.95 1.1 4 1.81 6.12 2.5l1.77-3.35c-2.7-3.96-6.05-7.28-9.54-10.53ZM422.26 399.6c.13-4.24.27-8.47.03-12.67-.25-2.54-1.86-2.58-3.72-2.62-.33 0-.66 0-1-.03-.92 3.61-1.06 7.52-1.21 11.37-.06 1.66-.13 3.3-.25 4.91a198.7 198.7 0 0 1-4.5-11.36c-.14-.25-.25-.54-.37-.83-.43-1.08-.9-2.26-2.24-2.23-2.5-.06-5.02.4-7.53.84-1.15.2-2.3.42-3.44.57-18.15 3.2-37.02 9.52-52.08 20.37-6.61 4.82-13.05 11.1-16.67 18.52-1.44 3.11-2.83 6.47-1.59 9.9l.41.12c1.08.33 2.6.8 3.42.06.93-.7 1.82-1.43 2.72-2.15 2.06-1.68 4.1-3.34 6.5-4.6 7.97-4.3 16.79-7.19 25.5-9.59 13.84-3.56 28.46-6.2 42.8-5.7 1.83.01 3.63.27 5.43.53 1.88.26 3.77.53 5.67.53 1.8-1.27 1.85-3.62 1.89-5.77 0-.62.02-1.2.07-1.76-.02-2.8.07-5.6.16-8.42Z" fill="#000"/></g><g transform="translate(-279 -322)"><path d="M453.25 567.36c4.1-.57 8.25-.35 12.08 1.33 7.6 3.15 12.7 10.48 14.48 18.34 3.17 12.11-1.32 25.91-11.67 33.21-3.02 2.43-6.72 3.47-10.48 2.14-3.55-1.73-5.24-5.25-6.16-8.9-1.46-5.32 1.2-10.53.14-16.17-1-4.18-4.74-7.42-6.58-11.4-1.24-2.68-2.42-5.94-2.07-8.92.75-5.02 5.39-8.88 10.26-9.63Z" fill="#000"/></g><g transform="translate(-279 -322)"></g></g></svg>